<?xml version="1.0" encoding="iso-8859-1"?>
<!-- Generator: Adobe Illustrator 16.0.0, SVG Export Plug-In . SVG Version: 6.00 Build 0)  -->
<!DOCTYPE svg PUBLIC "-//W3C//DTD SVG 1.1//EN" "http://www.w3.org/Graphics/SVG/1.1/DTD/svg11.dtd">
<svg version="1.1" id="Capa_1" xmlns="http://www.w3.org/2000/svg" xmlns:xlink="http://www.w3.org/1999/xlink" x="0px" y="0px"
	 width="301.291px" height="301.291px" viewBox="0 0 301.291 301.291" style="enable-background:new 0 0 301.291 301.291;"
	 xml:space="preserve">
<g>
	<g>
		<path d="M260.284,68.914h-26.89c-2.306-20.44-19.707-36.377-40.748-36.377h-84.001c-21.047,0-38.443,15.937-40.749,36.377h-26.89
			C18.393,68.914,0,87.31,0,109.927v117.82c0,22.614,18.399,41.007,41.007,41.007h219.277c22.614,0,41.007-18.393,41.007-41.007
			v-117.82C301.296,87.31,282.898,68.914,260.284,68.914z M150.648,233.397c-40.686,0-73.787-33.099-73.787-73.787
			c0-40.682,33.102-73.787,73.787-73.787c40.689,0,73.787,33.104,73.787,73.787C224.435,200.299,191.337,233.397,150.648,233.397z"
			/>
		<path d="M150.648,98.122c-33.903,0-61.489,27.583-61.489,61.489c0,33.909,27.586,61.489,61.489,61.489s61.489-27.58,61.489-61.489
			C212.137,125.711,184.551,98.122,150.648,98.122z M150.648,207.781c-26.556,0-48.165-21.617-48.165-48.171
			c0-26.559,21.608-48.164,48.165-48.164c26.559,0,48.165,21.605,48.165,48.164C198.813,186.164,177.208,207.781,150.648,207.781z"
			/>
		<path d="M150.648,123.744c-19.78,0-35.867,16.084-35.867,35.866c0,19.78,16.093,35.873,35.867,35.873
			c19.78,0,35.867-16.093,35.867-35.873C186.515,139.828,170.428,123.744,150.648,123.744z"/>
	</g>
</g>
<g>
</g>
<g>
</g>
<g>
</g>
<g>
</g>
<g>
</g>
<g>
</g>
<g>
</g>
<g>
</g>
<g>
</g>
<g>
</g>
<g>
</g>
<g>
</g>
<g>
</g>
<g>
</g>
<g>
</g>
</svg>
