<?xml version="1.0" encoding="utf-8"?>
<!-- Generator: Adobe Illustrator 18.1.1, SVG Export Plug-In . SVG Version: 6.00 Build 0)  -->
<svg version="1.1" id="Capa_1" xmlns="http://www.w3.org/2000/svg" xmlns:xlink="http://www.w3.org/1999/xlink" x="0px" y="0px"
	 viewBox="0 0 612 792" enable-background="new 0 0 612 792" xml:space="preserve">
<g>
	<g id="user">
		<g>
			<path fill="#FFFFFF" stroke="#009899" stroke-width="0.5" stroke-miterlimit="10" d="M339.1-775.3c49.5-39,81.4-99.4,81.4-167.3
				c0-117.7-95.4-213.1-213.1-213.1S-5.6-1060.3-5.6-942.6c0,67.9,31.9,128.3,81.5,167.3C-12.9-730-75.4-640.6-82.3-535.8h38.8
				c7.5-98.1,71.3-180.3,159-214.8c27.9,13.4,59,21.1,92.1,21.1s64.1-7.7,92.1-21.1c87.8,34.5,151.5,116.7,159,214.8h38.8
				C490.5-640.6,427.9-730,339.1-775.3z M207.5-768.3c-96.3,0-174.3-78-174.3-174.3s78-174.3,174.3-174.3s174.3,78,174.3,174.3
				S303.8-768.3,207.5-768.3z"/>
		</g>
	</g>
</g>
<polygon fill="#009999" points="696.3,166 312.1,722 -96,166 "/>
<path fill="none" stroke="#009999" stroke-width="3" stroke-miterlimit="10" d="M369,471.4H241.6c-6.6,0-12-5.4-12-12V332
	c0-6.6,5.4-12,12-12H369c6.6,0,12,5.4,12,12v127.4C381,466,375.6,471.4,369,471.4z"/>
</svg>
