<?xml version="1.0" encoding="utf-8"?>
<!-- Generator: Adobe Illustrator 18.1.1, SVG Export Plug-In . SVG Version: 6.00 Build 0)  -->
<svg version="1.1" id="Capa_1" xmlns="http://www.w3.org/2000/svg" xmlns:xlink="http://www.w3.org/1999/xlink" x="0px" y="0px"
	 viewBox="-235 -29 496 496" enable-background="new -235 -29 496 496" xml:space="preserve">
<g opacity="0.56">
	<path fill="#555555" d="M10.8,236v199.1L169.3,405v-97c0-4.1,3.5-7.2,7.6-6.8l19.5,3c3.4,0.4,6,3.3,6,6.8v112.7
		c0,3.2-2.2,6-5.4,6.6L23.5,467.6c-8.4,1.8-17.1,1.8-25.4,0.1l-171.6-36.1c-3.1-0.6-5.3-3.3-5.4-6.5l-3-114.4
		c-0.1-3.6,2.6-6.6,6.2-6.9L-30,290.9c2.5-0.2,4.7-1.8,5.7-4.2l22-53.3C0.5,226.5,10.8,228.5,10.8,236z M-183.6,170.8l-45.8,97.8
		c-2.2,4.8,1.6,10.2,6.8,9.6l171.8-17.4c2.4-0.2,4.5-1.8,5.5-4l55.3-124.5L-178.7,167C-180.8,167.4-182.7,168.8-183.6,170.8z
		 M10.1,132.3l58.5,128.4c1,2.2,3.2,3.8,5.6,4l171.5,13.8c5.2,0.4,8.9-4.9,6.7-9.6l-44.7-98.1c-0.9-2-2.8-3.5-5-3.9L10.1,132.3z
		 M-37.9,30.9l42.5,73.5c3.3,5.7,11.4,5.7,14.7,0l42.5-73.5c3.3-5.7-0.8-12.7-7.4-12.7H33.1v-45.1c0-4.7-3.8-8.5-8.5-8.5H-0.9
		c-4.7,0-8.5,3.8-8.5,8.5v45.1h-21.2C-37.1,18.2-41.2,25.2-37.9,30.9z"/>
</g>
</svg>
