<?xml version="1.0" encoding="utf-8"?>
<!-- Generator: Adobe Illustrator 18.1.1, SVG Export Plug-In . SVG Version: 6.00 Build 0)  -->
<svg version="1.1" id="Capa_1" xmlns="http://www.w3.org/2000/svg" xmlns:xlink="http://www.w3.org/1999/xlink" x="0px" y="0px"
	 viewBox="-283 83 398 336" enable-background="new -283 83 398 336" xml:space="preserve">
<g>
	<path fill="#009999" d="M98.9,204.5c-3.8-4.7-9.5-7.5-15.6-7.5h-20c0-11.1-9-20-20-20h-20v-20c0-11.1-9-20-20-20h-10v-40
		c0-5.5-4.5-10-10-10H-217c-5.5,0-10,4.5-10,10v40h-10c-11.1,0-20,9-20,20v240.2c0,11.1,9,20,20,20h40H3.2h40
		c9.4,0,17.5-6.5,19.5-15.7l40-180.1C104.1,215.4,102.7,209.2,98.9,204.5z M-227,397.1h-10V156.9h10V397.1z M-16.8,176.9
		c-11.1,0-20,9-20,20h-120.1c-9.4,0-17.5,6.5-19.5,15.7c0,0-40.5,183-40.5,184.5h0V96.9h200.2V176.9z M3.2,176.9h-10v-20h10V176.9z
		 M-58.2,141.3h-119.4c-5.5,0-10-4.5-10-10c0-5.5,4.5-10,10-10h119.4c5.5,0,10,4.5,10,10S-52.7,141.3-58.2,141.3z M-58.2,181.9
		h-119.4c-5.5,0-10-4.5-10-10c0-5.5,4.5-10,10-10h119.4c5.5,0,10,4.5,10,10C-48.2,177.5-52.7,181.9-58.2,181.9z"/>
</g>
</svg>
