<?xml version="1.0" encoding="utf-8"?>
<!-- Generator: Adobe Illustrator 18.1.1, SVG Export Plug-In . SVG Version: 6.00 Build 0)  -->
<svg version="1.1" id="Layer_1" xmlns="http://www.w3.org/2000/svg" xmlns:xlink="http://www.w3.org/1999/xlink" x="0px" y="0px"
	 viewBox="0 0 846.9 195" enable-background="new 0 0 846.9 195" xml:space="preserve">
<g>
	<path fill="#F78E42" d="M49.5,102.8c0-35.9,29.1-65,64.9-65c35.9,0,65,29.1,65,65c0,2.3-0.1,4.5-0.3,6.7c-7.4,28.8-33.5,50-64.6,50
		c-31,0-57.2-21.2-64.6-50C49.6,107.3,49.5,105.1,49.5,102.8"/>
	<path fill-rule="evenodd" clip-rule="evenodd" fill="#F78E42" d="M49.5,102.8c0-35.9,29.1-65,64.9-65C78.6,37.9,49.5,67,49.5,102.8
		c0,2.3,0.1,4.5,0.4,6.7c2.4,9.3,6.8,17.9,12.7,25.2c14.7,10.2,32.6,16.2,51.9,16.2v8.6c-31,0-57.2-21.2-64.6-50
		C49.6,107.3,49.5,105.1,49.5,102.8 M114.4,37.9c35.9,0,65,29.1,65,65c0,2.3-0.1,4.5-0.3,6.7c-7.4,28.8-33.5,50-64.6,50v-8.6
		c19.3,0,37.2-6,52-16.2c5.9-7.3,10.2-15.9,12.7-25.2c0.2-2.2,0.3-4.4,0.3-6.7C179.4,67,150.3,37.9,114.4,37.9z"/>
	<path fill="#F79042" d="M169.5,130.5c-15.2,11.8-34.3,18.9-55.1,18.9c-20.7,0-39.8-7-55-18.9c-4.3-6.3-7.6-13.4-9.5-21
		c-0.2-2.2-0.4-4.4-0.4-6.7c0-35.9,29.1-65,64.9-65c35.9,0,65,29.1,65,65c0,2.3-0.1,4.5-0.3,6.7
		C177.1,117.1,173.8,124.2,169.5,130.5"/>
	<path fill="#F79142" d="M172.1,126.4c-15.5,13.4-35.6,21.5-57.7,21.5c-22,0-42.1-8.1-57.6-21.5c-3-5.2-5.4-10.9-6.9-16.9
		c-0.2-2.2-0.4-4.4-0.4-6.7c0-35.9,29.1-65,64.9-65c35.9,0,65,29.1,65,65c0,2.3-0.1,4.5-0.3,6.7
		C177.5,115.5,175.2,121.2,172.1,126.4"/>
	<path fill="#F79442" d="M174.3,122.4c-15.6,14.9-36.7,24-59.9,24c-23.1,0-44.2-9.1-59.8-24c-2-4.1-3.6-8.4-4.8-12.9
		c-0.2-2.2-0.4-4.4-0.4-6.7c0-35.9,29.1-65,64.9-65c35.9,0,65,29.1,65,65c0,2.3-0.1,4.5-0.3,6.7C177.9,114,176.3,118.3,174.3,122.4"
		/>
	<path fill="#F89642" d="M176.1,118.4c-15.5,16.3-37.4,26.4-61.7,26.4c-24.2,0-46.1-10.1-61.6-26.4c-1.2-2.9-2.2-5.9-3-8.9
		c-0.2-2.2-0.4-4.4-0.4-6.7c0-35.9,29.1-65,64.9-65c35.9,0,65,29.1,65,65c0,2.3-0.1,4.5-0.3,6.7
		C178.3,112.6,177.3,115.6,176.1,118.4"/>
	<path fill="#F89842" d="M177.5,114.5c-15.3,17.7-37.9,28.8-63.1,28.8c-25.2,0-47.7-11.1-63.1-28.8c-0.5-1.6-1.1-3.3-1.5-5
		c-0.2-2.2-0.4-4.4-0.4-6.7c0-35.9,29.1-65,64.9-65c35.9,0,65,29.1,65,65c0,2.3-0.1,4.5-0.3,6.7
		C178.6,111.2,178.1,112.9,177.5,114.5"/>
	<path fill="#F89942" d="M178.7,110.7c-15,18.9-38.3,31.1-64.3,31.1c-26,0-49.2-12.2-64.2-31.1c-0.1-0.4-0.2-0.8-0.3-1.2
		c-0.2-2.2-0.4-4.4-0.4-6.7c0-35.9,29.1-65,64.9-65c35.9,0,65,29.1,65,65c0,2.3-0.1,4.5-0.3,6.7
		C178.9,109.9,178.8,110.3,178.7,110.7"/>
	<path fill="#F89B42" d="M179.2,107.6c-14.7,19.9-38.2,32.7-64.8,32.7c-26.5,0-50.1-12.8-64.7-32.7c-0.1-1.6-0.2-3.1-0.2-4.7
		c0-35.9,29.1-65,64.9-65c35.9,0,65,29.1,65,65C179.4,104.4,179.3,106,179.2,107.6"/>
	<path fill="#F99E42" d="M179.4,104.8c-14.3,20.5-38.1,34-65,34c-26.8,0-50.6-13.4-64.9-34c0-0.7,0-1.3,0-1.9
		c0-35.9,29.1-65,64.9-65c35.9,0,65,29.1,65,65C179.4,103.5,179.4,104.1,179.4,104.8"/>
	<path fill="#F99F42" d="M179.4,102c-13.8,21.2-37.8,35.2-65,35.2c-27.2,0-51.1-14-64.9-35.2c0.4-35.5,29.3-64.1,64.9-64.1
		C150,37.9,178.9,66.5,179.4,102"/>
	<path fill="#F9A042" d="M179.3,99.3c-13.4,21.8-37.4,36.4-64.9,36.4c-27.4,0-51.5-14.6-64.8-36.4c1.8-34.2,30.2-61.4,64.8-61.4
		C149.1,37.9,177.5,65,179.3,99.3"/>
	<path fill="#F9A142" d="M179.1,96.6c-12.8,22.4-37,37.5-64.7,37.5c-27.7,0-51.8-15.1-64.6-37.5c3.1-33,30.9-58.7,64.6-58.7
		C148.2,37.9,176,63.6,179.1,96.6"/>
	<path fill="#FAA442" d="M178.8,94c-12.3,23-36.5,38.6-64.4,38.6c-27.8,0-52.1-15.6-64.3-38.6c4.3-31.7,31.5-56.1,64.3-56.1
		C147.3,37.9,174.5,62.3,178.8,94"/>
	<path fill="#FAA641" d="M178.4,91.4c-11.7,23.5-35.9,39.7-64,39.7c-28,0-52.2-16.2-63.9-39.7c5.4-30.4,31.9-53.5,63.9-53.5
		C146.4,37.9,173,61,178.4,91.4"/>
	<path fill="#FAA841" d="M177.9,88.9c-11.1,24-35.3,40.6-63.5,40.6c-28.1,0-52.4-16.6-63.4-40.6c6.3-29.2,32.4-51,63.4-51
		C145.5,37.9,171.5,59.7,177.9,88.9"/>
	<path fill="#FAA841" d="M177.3,86.5c-10.4,24.5-34.7,41.6-62.9,41.6c-28.2,0-52.4-17.1-62.8-41.6c7.2-27.9,32.6-48.6,62.8-48.6
		C144.6,37.9,170.1,58.5,177.3,86.5"/>
	<path fill="#FAAA40" d="M176.6,84.1c-9.7,24.8-33.9,42.4-62.2,42.4c-28.2,0-52.4-17.6-62.2-42.4c8.1-26.8,32.9-46.2,62.2-46.2
		C143.8,37.9,168.6,57.3,176.6,84.1"/>
	<path fill="#FBAB40" d="M175.9,81.8c-9.1,25.2-33.1,43.3-61.5,43.3C86.1,125,62,106.9,53,81.8c8.8-25.5,33-43.9,61.4-43.9
		C142.9,37.9,167.1,56.2,175.9,81.8"/>
	<path fill="#FBAE3F" d="M175,79.5c-8.3,25.6-32.3,44-60.6,44c-28.3,0-52.3-18.4-60.6-44c9.4-24.3,33-41.6,60.6-41.6
		C142.1,37.9,165.7,55.1,175,79.5"/>
	<path fill="#FBB03F" d="M174.1,77.2c-7.5,25.9-31.4,44.7-59.7,44.7c-28.2,0-52.1-18.9-59.7-44.7c10-23.1,32.9-39.3,59.7-39.3
		C141.2,37.9,164.2,54.1,174.1,77.2"/>
	<path fill="#FCB23F" d="M173.2,75c-6.8,26.1-30.5,45.4-58.7,45.4c-28.2,0-51.9-19.3-58.7-45.4c10.4-22,32.8-37.2,58.7-37.2
		C140.3,37.9,162.7,53.1,173.2,75"/>
	<path fill="#FCB33E" d="M172.1,72.9c-6,26.3-29.6,46-57.7,46c-28.1,0-51.6-19.6-57.6-46c10.8-20.8,32.6-35,57.6-35
		C139.5,37.9,161.3,52.1,172.1,72.9"/>
	<path fill="#FCB53E" d="M171,70.9c-5.2,26.5-28.6,46.5-56.6,46.5c-28,0-51.3-20-56.5-46.5c11.1-19.7,32.3-33,56.5-33
		C138.7,37.9,159.8,51.2,171,70.9"/>
	<path fill="#FDB83E" d="M169.8,68.9c-4.3,26.6-27.5,47-55.4,47c-27.8,0-51-20.4-55.3-47c11.4-18.6,31.9-31,55.3-31
		C137.8,37.9,158.4,50.3,169.8,68.9"/>
	<path fill="#FDB93E" d="M168.5,66.9c-3.5,26.7-26.4,47.4-54.1,47.4c-27.7,0-50.5-20.7-54.1-47.4c11.6-17.5,31.5-29,54.1-29
		C137,37.9,156.9,49.4,168.5,66.9"/>
	<path fill="#FDBB3F" d="M167.2,65c-2.6,26.8-25.3,47.8-52.8,47.8c-27.5,0-50.1-21-52.8-47.8c11.8-16.4,31.1-27.1,52.8-27.1
		C136.2,37.9,155.4,48.6,167.2,65"/>
	<path fill="#FDBC44" d="M165.8,63.1c-1.7,26.9-24,48.1-51.4,48.1c-27.2,0-49.6-21.3-51.3-48.1C75,47.8,93.6,37.9,114.4,37.9
		C135.3,37.9,153.9,47.8,165.8,63.1"/>
	<path fill="#FEBF49" d="M164.3,61.2c-0.8,26.9-22.8,48.4-49.9,48.4c-27,0-49-21.5-49.8-48.4c11.9-14.3,29.8-23.3,49.8-23.3
		C134.5,37.9,152.4,46.9,164.3,61.2"/>
	<path fill="#FEC051" d="M66.2,59.7v-0.3C78,46.2,95.3,37.9,114.4,37.9c19.2,0,36.5,8.3,48.3,21.5v0.3c0,26.7-21.6,48.3-48.3,48.3
		C87.8,108.1,66.2,86.4,66.2,59.7"/>
	<path fill="#FEC256" d="M67.7,59.7c0-0.7,0-1.4,0-2c11.8-12.2,28.4-19.8,46.7-19.8c18.4,0,34.9,7.6,46.7,19.8c0,0.7,0,1.3,0,2
		c0,25.8-20.9,46.7-46.7,46.7C88.6,106.5,67.7,85.5,67.7,59.7"/>
	<path fill="#FEC45D" d="M69.3,59.7c0-1.2,0-2.5,0.1-3.7c11.7-11.2,27.6-18.1,45-18.1c17.5,0,33.3,6.9,45,18.1
		c0.1,1.2,0.2,2.5,0.2,3.7c0,24.9-20.2,45.2-45.2,45.2C89.5,104.9,69.3,84.7,69.3,59.7"/>
	<path fill="#FEC561" d="M70.9,59.7c0-1.8,0.1-3.6,0.3-5.3c11.5-10.3,26.7-16.5,43.2-16.5c16.6,0,31.8,6.2,43.3,16.5
		c0.2,1.7,0.3,3.5,0.3,5.3c0,24.1-19.5,43.6-43.6,43.6C90.4,103.3,70.9,83.8,70.9,59.7"/>
	<path fill="#FEC868" d="M72.5,59.7c0-2.3,0.2-4.7,0.5-6.9c11.3-9.3,25.7-14.9,41.4-14.9c15.8,0,30.2,5.6,41.5,14.9
		c0.4,2.3,0.6,4.6,0.6,6.9c0,23.2-18.8,42-42,42C91.3,101.7,72.5,82.9,72.5,59.7"/>
	<path fill="#FEC970" d="M74,59.7c0-2.9,0.3-5.7,0.9-8.4c10.9-8.4,24.7-13.4,39.5-13.4c14.9,0,28.6,5,39.6,13.4
		c0.6,2.7,0.9,5.5,0.9,8.4c0,22.3-18.1,40.4-40.5,40.4C92.1,100.1,74,82,74,59.7"/>
	<path fill="#FFCB74" d="M75.6,59.7c0-3.4,0.4-6.7,1.2-9.9c10.7-7.5,23.6-12,37.6-12c14,0,27,4.4,37.6,12c0.8,3.2,1.3,6.5,1.3,9.9
		c0,21.5-17.4,38.9-38.9,38.9C93,98.6,75.6,81.2,75.6,59.7"/>
	<path fill="#FFCD79" d="M77.2,59.7c0-3.9,0.6-7.7,1.7-11.3c10.2-6.7,22.4-10.6,35.5-10.6c13.2,0,25.4,3.9,35.6,10.6
		c1.1,3.6,1.8,7.3,1.8,11.3c0,20.6-16.7,37.3-37.3,37.3C93.9,97,77.2,80.3,77.2,59.7"/>
	<path fill="#FFCF7D" d="M78.8,59.7c0-4.4,0.8-8.7,2.3-12.6c9.8-5.9,21.2-9.2,33.4-9.2c12.3,0,23.7,3.4,33.4,9.2
		c1.5,3.9,2.3,8.2,2.3,12.6c0,19.7-16,35.7-35.7,35.7C94.7,95.4,78.8,79.5,78.8,59.7"/>
	<path fill="#FFD083" d="M80.3,59.7c0-5,1.1-9.6,2.9-13.9c9.3-5.1,19.9-7.9,31.1-7.9c11.3,0,22,2.9,31.2,7.9c1.9,4.3,3,8.9,3,13.9
		c0,18.8-15.3,34.1-34.2,34.1C95.6,93.8,80.3,78.6,80.3,59.7"/>
	<path fill="#FFD189" d="M81.9,59.7c0-5.4,1.3-10.6,3.7-15.1c8.7-4.3,18.5-6.7,28.8-6.7c10.4,0,20.2,2.4,28.8,6.7
		c2.4,4.5,3.7,9.7,3.7,15.1c0,18-14.6,32.6-32.6,32.6C96.5,92.3,81.9,77.7,81.9,59.7"/>
	<path fill="#FFD38C" d="M83.5,59.7c0-6,1.7-11.5,4.6-16.3c8-3.6,17-5.6,26.3-5.6c9.4,0,18.3,2,26.4,5.6c2.9,4.7,4.6,10.3,4.6,16.3
		c0,17.1-13.9,31-31,31C97.4,90.7,83.5,76.8,83.5,59.7"/>
	<path fill="#FFD592" d="M85.1,59.7c0-6.5,2.1-12.5,5.7-17.4c7.4-2.9,15.4-4.5,23.7-4.5c8.4,0,16.4,1.6,23.7,4.5
		c3.6,4.9,5.7,10.9,5.7,17.4c0,16.3-13.1,29.4-29.4,29.4C98.2,89.1,85.1,76,85.1,59.7"/>
	<path fill="#FFD695" d="M86.6,59.7c0-7,2.6-13.5,7-18.4c6.6-2.2,13.6-3.4,20.8-3.4c7.3,0,14.3,1.2,20.9,3.4c4.3,4.9,7,11.4,7,18.4
		c0,15.4-12.5,27.8-27.9,27.8C99.1,87.5,86.6,75.1,86.6,59.7"/>
	<path fill="#FFD79A" d="M88.2,59.7c0-7.7,3.3-14.6,8.6-19.4c5.6-1.6,11.6-2.4,17.6-2.4c6.1,0,12,0.8,17.7,2.4
		c5.2,4.8,8.6,11.7,8.6,19.4c0,14.5-11.8,26.3-26.3,26.3C99.9,86,88.2,74.2,88.2,59.7"/>
	<path fill="#FFD99D" d="M89.8,59.7c0-8.4,4.3-15.9,10.7-20.4c4.5-1,9.2-1.5,13.9-1.5c4.8,0,9.5,0.5,14,1.5
		c6.5,4.5,10.7,11.9,10.7,20.4c0,13.6-11.1,24.7-24.7,24.7C100.8,84.4,89.8,73.4,89.8,59.7"/>
	<path fill="#FFDBA2" d="M91.4,59.7c0-9.5,5.7-17.7,13.9-21.2c3-0.4,6-0.6,9.1-0.6c3.1,0,6.2,0.2,9.2,0.6
		c8.2,3.6,13.9,11.7,13.9,21.2c0,12.7-10.3,23.1-23.1,23.1C101.7,82.8,91.4,72.5,91.4,59.7"/>
	<path fill="#FFDDA7" d="M92.9,59.7c0-11.9,9.6-21.5,21.5-21.5c11.9,0,21.5,9.6,21.5,21.5c0,11.9-9.7,21.5-21.5,21.5
		C102.6,81.2,92.9,71.6,92.9,59.7"/>
	<path fill="#FFDFAB" d="M94.5,59.7c0-11,8.9-19.9,19.9-19.9c11,0,19.9,8.9,19.9,19.9c0,11-8.9,20-19.9,20
		C103.4,79.7,94.5,70.7,94.5,59.7"/>
	<path fill="#FFE0B0" d="M96.1,59.7c0-10.1,8.2-18.4,18.3-18.4c10.2,0,18.4,8.2,18.4,18.4c0,10.2-8.2,18.4-18.4,18.4
		C104.3,78.1,96.1,69.9,96.1,59.7"/>
	<path fill="#FFE2B4" d="M97.7,59.7c0-9.3,7.5-16.8,16.7-16.8c9.3,0,16.8,7.5,16.8,16.8c0,9.3-7.5,16.8-16.8,16.8
		C105.2,76.5,97.7,69,97.7,59.7"/>
	<path fill="#FFE4B9" d="M99.2,59.7c0-8.4,6.8-15.2,15.2-15.2c8.4,0,15.2,6.8,15.2,15.2c0,8.4-6.8,15.2-15.2,15.2
		C106,74.9,99.2,68.1,99.2,59.7"/>
	<path fill="#FFE6BF" d="M100.8,59.7c0-7.5,6.1-13.6,13.6-13.6c7.5,0,13.6,6.1,13.6,13.6c0,7.5-6.1,13.6-13.6,13.6
		C107,73.4,100.8,67.3,100.8,59.7"/>
	<path fill="#FFE8C3" d="M102.4,59.7c0-6.6,5.4-12,12-12c6.7,0,12.1,5.4,12.1,12c0,6.7-5.4,12-12.1,12
		C107.8,71.8,102.4,66.4,102.4,59.7"/>
	<path fill="#FFEAC7" d="M104,59.7c0-5.8,4.7-10.5,10.4-10.5c5.8,0,10.5,4.7,10.5,10.5c0,5.8-4.7,10.5-10.5,10.5
		C108.7,70.2,104,65.5,104,59.7"/>
	<path fill="#FFECCC" d="M105.6,59.7c0-4.9,4-8.9,8.8-8.9c4.9,0,8.9,4,8.9,8.9c0,4.9-4,8.9-8.9,8.9
		C109.5,68.6,105.6,64.6,105.6,59.7"/>
	<path fill="#FFEED1" d="M107.1,59.7c0-4.1,3.3-7.3,7.3-7.3c4.1,0,7.3,3.3,7.3,7.3c0,4.1-3.3,7.3-7.3,7.3
		C110.4,67,107.1,63.8,107.1,59.7"/>
	<path fill="#FFF0D5" d="M108.7,59.7c0-3.2,2.6-5.7,5.7-5.7c3.2,0,5.8,2.6,5.8,5.7c0,3.2-2.6,5.7-5.8,5.7
		C111.3,65.5,108.7,62.9,108.7,59.7"/>
	<path fill="#FFF2DA" d="M110.3,59.7c0-2.3,1.9-4.2,4.1-4.2c2.3,0,4.2,1.9,4.2,4.2c0,2.3-1.8,4.2-4.2,4.2
		C112.2,63.9,110.3,62,110.3,59.7"/>
	<path fill="#373233" d="M101,51.8c-9,1.4-17.4,4.2-25.2,8.2l2,2c-9.4,3.1-18.2,7.6-26,13.3c-0.5,1.3-1.1,2.6-1.6,3.9
		c9.9-3.3,20.5-5,31.5-4.8c3,0,6,0.2,8.9,0.5l4.2,4.2c2-0.6,4-1.1,6.1-1.6V51.8 M101,93.8c-2.8,1.3-5.5,2.7-8.1,4.3l5.9,5.9
		c0.7-0.1,1.4-0.1,2.2-0.1v11.3c-4.7-1.1-9.5-1.6-14.4-1.8l14.4,14.4v5.3l-19.7-19.6l-0.5,0c-4.9,0.2-9.6,0.9-14.2,2.1
		c-0.5-1-1-2.1-1.4-3.2c3.4-1.8,6.9-3.3,10.5-4.6l-3.7-3.7c-1.1-0.2-2.3-0.4-3.5-0.5c-1.4-0.2-2.7-0.3-4-0.4
		c-2.7-0.2-5.4-0.4-8.1-0.4c-3.5,0-7,0.2-10.4,0.6v-0.6c0-0.7,0-1.4,0-2.1c9.5-4,19.7-6.5,30.4-7.2l11.4,11.4
		c1.9-0.3,3.8-0.5,5.7-0.7L79.8,90.3c-3.8-0.5-7.7-0.7-11.7-0.7c-7.3,0-14.3,0.8-21.2,2.4c0.2-1.3,0.4-2.6,0.7-3.8
		c11.2-5.8,23.7-9.3,37-10.2l3.5,3.5l4.7,4.7c2.6-1.3,5.4-2.4,8.2-3.4V93.8z M101,103.9c2.1,0,4.2,0.1,6.3,0.3
		c1,3.4,1.8,6.8,2.3,10.4l8.8,9l9.2-9.2v5.3l-7.3,7.2l1.3,32.1c-2.3,0.2-4.8,0.4-7.2,0.4c-2.3,0-4.7-0.1-7-0.4l0.6-13.6l0.2-5.1
		l-7.2-7.2v-5.3l7.4,7.4l0.7-15.6l-3.1-3.1c-1.6-0.5-3.3-0.9-5-1.3V103.9z M127.6,103.5l-13.2-13.2l-0.9-0.9
		c-4.4,1-8.6,2.5-12.5,4.3v-11c7.7-2.7,16-4.1,24.7-4.1c-0.7-0.9-1.3-1.8-2-2.6c-2.2-0.2-4.5-0.3-6.7-0.3c-5.4,0-10.8,0.6-16,1.7
		V51.8c4.4-0.7,8.8-1.1,13.4-1.1c4.5,0,8.9,0.3,13.2,1v42.1c-1.8-0.4-3.6-0.7-5.4-0.9l0.8,0.9l4.6,4.5V103.5z M133,109l-5.4-5.4
		v-5.3l8.1,8.1l5.7-5.7l1.5-1.5c-4.8-2.3-9.9-4.1-15.2-5.3V51.7c3.6,0.6,7.2,1.4,10.6,2.3c2.8,2.8,5.4,5.7,7.7,8.8
		c0.8-0.6,1.7-1.1,2.5-1.7c10.4,3.1,20,7.9,28.6,14.1c0.6,1.3,1.1,2.6,1.6,3.9c-7.9-2.7-16.3-4.3-25-4.7c0.9,1.7,1.8,3.4,2.6,5.1
		c8.8,1.7,17.2,4.7,25,8.6c0.3,1.3,0.5,2.6,0.7,3.8c-6.8-1.6-13.9-2.4-21.2-2.4l-0.3,0c0.5,1.6,1.1,3.3,1.6,5
		c7.3,1.2,14.2,3.3,20.8,6.1c0,0.7,0,1.4,0,2.1v0.6c-3.4-0.4-6.9-0.6-10.4-0.6c-6.8,0-13.4,0.7-19.8,2.1c-2.1-1.4-4.2-2.7-6.4-4
		l-12.9,12.9l-5.8,5.8v-5.3L133,109z"/>
	<path fill="#00B5B9" d="M50,109.3c7.3,28.8,33.4,50.1,64.4,50.1c31.1,0,57.1-21.3,64.4-50.1c1.3-0.2,2.6-0.4,3.9-0.5
		c-3,35.1-32.4,62.6-68.3,62.6c-35.8,0-65.3-27.5-68.2-62.6C47.5,108.9,48.7,109.1,50,109.3"/>
	<path fill-rule="evenodd" clip-rule="evenodd" fill="#00B5B9" d="M408.6,150.3l2.5,3.5h-4l-2.5-3.5H408.6 M400.2,150.3h3.6v3.5
		h-3.6V150.3z M394.8,150.3h3.7v3.5h-3.7V150.3z M391,150.3l-0.1,3.5h-3.7v-3.5H391z M385.8,150.3v3.5c-0.3,0-0.5,0-0.8,0
		c-0.7,0-1.5,0-2.4-0.9l-0.2,0.1c-0.4,0.4-0.9,0.6-1.5,0.8v-2.6c0.4-0.1,0.8-0.3,1.1-0.5l0-0.4H385.8z M378.1,150.3
		c0.4,0.6,1,0.9,2,0.9c0.3,0,0.6,0,0.9-0.1v2.6c-0.5,0.2-1.1,0.2-1.6,0.2c-2.9,0-4.7-1.5-5.2-3.7L378.1,150.3z M373.2,150.3
		c-0.4,1.9-2.2,3.5-5.6,3.5h-0.7v-2.9h0.5c0.7,0,1.3-0.2,1.7-0.6H373.2z M364.1,150.3v0.6h2.7v2.9h-6.3v-3.5H364.1z M350.9,150.3
		h3.7v3.5h-3.7V150.3z M348.8,150.3v3.5c-0.3,0-0.5,0-0.8,0c-0.7,0-1.5,0-2.3-0.9l-0.2,0.1c-0.7,0.7-1.7,0.9-2.6,1v-2.8
		c0.1,0,0.2,0,0.3,0c0.8,0,1.5-0.2,1.9-0.5v-0.4H348.8z M341.1,150.3c0.4,0.5,0.9,0.9,1.8,0.9v2.8c-0.2,0-0.3,0-0.4,0
		c-3,0-4.8-1.5-5.3-3.7L341.1,150.3z M332,150.3h3.7v3.5H332V150.3z M328.1,150.3l-0.1,3.5h-3.7v-3.5H328.1z M322.8,150.3
		c-0.6,2.3-2.4,3.7-5.9,3.7v-2.8c1.1,0,1.7-0.4,2.1-0.9H322.8z M314.9,150.3c0.4,0.6,1,0.9,2,0.9v2.8c-3.5,0-5.3-1.5-5.9-3.7
		L314.9,150.3z M305.5,150.3h3.7v3.5h-3.7V150.3z M299.8,150.3c0.3,0.8,0.9,1,2,1c0.5,0,1.1-0.2,1.7-0.4v2.5c-1,0.4-2.2,0.6-3,0.6
		c-3.4,0-4.3-1.4-4.5-3.7L299.8,150.3z M294.4,150.3v3.5c-0.3,0-0.5,0-0.8,0c-0.7,0-1.5,0-2.3-0.9l-0.2,0.1c-0.6,0.7-1.6,0.9-2.5,1
		v-2.8c0,0,0.2,0,0.3,0c0.8,0,1.5-0.2,1.9-0.5l0-0.4H294.4z M286.7,150.3c0.3,0.5,0.9,0.9,1.8,0.9v2.8c-0.2,0-0.3,0-0.5,0
		c-2.9,0-4.7-1.5-5.2-3.7L286.7,150.3z M281.4,150.3v3.5h-1.1c-1,0-1.8-0.4-2.5-1l-2.4-2.4H281.4z M266,150.3h3.4v3.5H266V150.3z
		 M256.3,150.3c0.3,0.8,0.9,1,2,1c0.5,0,1.1-0.2,1.7-0.4v2.5c-1,0.4-2.2,0.6-3.1,0.6c-3.4,0-4.3-1.4-4.5-3.7L256.3,150.3z
		 M251,150.3c0,0.1,0,0.3,0,0.4c0,2.2-2,3.3-5.4,3.3c-2,0-3.7-0.4-5-0.8v-2.4c1.5,0.4,3.3,0.9,4.6,0.9c1,0,1.6-0.3,1.6-0.8
		c0-0.2-0.3-0.4-0.5-0.5c0,0,0,0-0.1,0L251,150.3z M235.9,150.3l-0.1,3.5h-3.6v-3.5H235.9z M226.4,150.3h3.7v3.5h-3.7V150.3z
		 M212.3,150.3h3.7v3.5h-3.7V150.3z"/>
	<path fill-rule="evenodd" clip-rule="evenodd" fill="#00B5B9" d="M403.8,146.6v0.7c1.4,0.1,2-0.2,2.3-0.7l3.9,0
		c-0.3,1-1,1.9-2.1,2.5l-0.2,0.1l0.8,1.1h-4.1l-0.2-0.3h-0.5v0.3h-3.6v-3.7H403.8 M398.5,146.6c0,0.1,0,0.2,0,0.3v3.4h-3.7V148
		c0-0.8-0.3-1.2-0.7-1.4H398.5z M392.2,146.6c-0.4,0.1-0.8,0.3-1.2,0.4l0,3.3h-3.7v-3.7H392.2z M385.8,146.6v3.7h-3.7l0-3.4
		c-0.2-0.1-0.3-0.2-0.5-0.3L385.8,146.6z M378.8,146.6c-0.7,0.4-1,1.3-1,2.2c0,0.6,0.1,1.1,0.4,1.5h-3.9c-0.1-0.5-0.2-1-0.2-1.5
		c0-0.8,0.1-1.5,0.4-2.2H378.8z M366.9,146.6v0.6h-2.7v3.1h-3.5v-3.7H366.9v0.6h0.5c1.4,0,2.2,0.8,2.2,1.8c0,0.5-0.2,1-0.5,1.3h4
		c0-0.3,0.1-0.5,0.1-0.8c0-1.1-0.4-2.2-1.3-3L366.9,146.6z M350.9,146.6h3.7v3.7h-3.7V146.6z M348.8,146.6v3.7h-3.7l0-3.4
		c-0.1-0.1-0.3-0.2-0.4-0.3L348.8,146.6z M341.8,146.6c-0.7,0.4-1.1,1.3-1.1,2.2c0,0.6,0.1,1.1,0.4,1.5h-3.9c-0.1-0.5-0.2-1-0.2-1.5
		c0-0.8,0.1-1.5,0.4-2.2H341.8z M335.7,146.6c0,0.1,0,0.2,0,0.3v3.4H332V148c0-0.8-0.3-1.2-0.8-1.4H335.7z M329.3,146.6
		c-0.4,0.1-0.8,0.3-1.2,0.4l-0.1,3.3h-3.7v-3.7H329.3z M322.6,146.6c0.3,0.7,0.4,1.4,0.4,2.2c0,0.5-0.1,1.1-0.2,1.5l-3.9,0
		c0.3-0.4,0.4-1,0.4-1.5c0-0.9-0.3-1.8-1-2.2H322.6z M315.5,146.6c-0.7,0.4-1,1.3-1,2.2c0,0.6,0.1,1.1,0.4,1.5h-3.8
		c-0.1-0.5-0.2-1-0.2-1.5c0-0.8,0.1-1.5,0.4-2.2H315.5z M305.5,146.6h3.7v3.7h-3.7V146.6z M299.5,146.6v1.9c0,0.8,0.1,1.4,0.3,1.8
		l-3.9,0c0-0.4,0-0.9,0-1.3v-2.4H299.5z M294.4,146.6v3.7h-3.7l0-3.4c-0.1-0.1-0.3-0.2-0.4-0.3L294.4,146.6z M287.4,146.6
		c-0.7,0.4-1,1.3-1,2.2c0,0.6,0.1,1.1,0.4,1.5h-3.9c-0.1-0.5-0.2-1-0.2-1.5c0-0.8,0.1-1.5,0.4-2.2H287.4z M276.7,146.6l0.1,0.1
		c0.6,0.6,1.1,1.3,1.1,1.3l0.1-0.1l0-1.3h3.4v3.7h-6.1l-3.7-3.7H276.7z M266,146.6h3.4v3.7H266V146.6z M256,146.6v1.9
		c0,0.8,0.1,1.4,0.2,1.8l-3.8,0c0-0.4,0-0.9,0-1.3v-2.4H256z M244.7,146.6c0,0.2,0.3,0.4,0.5,0.5c0.2,0.1,0.5,0.2,0.9,0.3
		c2.5,0.5,4.6,1.2,4.9,3h-4.8c-0.2-0.1-0.5-0.2-0.9-0.3c-0.5-0.1-1.1-0.3-1.7-0.4c-0.6-0.2-1.1-0.4-1.6-0.6
		c-0.9-0.5-1.5-1.2-1.5-2.4c0,0,0,0,0,0L244.7,146.6z M239.7,146.6v0.3c-1.2,0.1-2.9,0.4-3.7,0.9l0,2.5h-3.7v-3.7H239.7z
		 M226.4,146.6h3.7v3.7h-3.7V146.6z M223.9,146.6v1.2H216v2.5h-3.7v-3.7H223.9z"/>
	<path fill-rule="evenodd" clip-rule="evenodd" fill="#00B5B9" d="M406.1,146.6c0.1-0.1,0.1-0.2,0.2-0.3c0.4-0.6,0.3-1.7,0.1-2.4
		h3.7c0.3,0.9,0.3,1.8,0.1,2.7L406.1,146.6 M387.2,146.6v-1.1c1.8-0.1,2.5-0.6,3.9-1.1c1.1-0.4,2.6-0.9,3.6-0.9
		c2.8,0,3.7,1.3,3.8,3.1h-4.4c-0.3-0.1-0.6-0.2-0.9-0.2c-0.3,0-0.6,0.1-1,0.2H387.2z M381.6,146.6c-0.2-0.1-0.4-0.2-0.6-0.2v-2.7
		c0.6,0.2,1.2,0.5,1.7,0.8c0.6,0.3,1.7,0.9,3.1,1v1.1H381.6z M374.4,146.6c0.7-1.9,2.4-3.1,5-3.1c0.6,0,1.1,0.1,1.6,0.2v2.7
		c-0.3-0.1-0.5-0.1-0.9-0.1c-0.6,0-1,0.1-1.4,0.3H374.4z M344.7,146.6c-0.4-0.2-0.9-0.3-1.5-0.3c-0.1,0-0.2,0-0.3,0v-2.7
		c1.2,0.1,2.1,0.5,2.7,0.9c0.7,0.3,1.7,0.9,3.1,1v1.1H344.7z M337.4,146.6c0.7-1.9,2.4-3.1,5.1-3.1c0.1,0,0.3,0,0.4,0.1v2.7
		c-0.5,0-0.8,0.2-1.1,0.3L337.4,146.6z M324.4,146.6v-1.1c1.8-0.1,2.5-0.6,3.9-1.1c1.1-0.4,2.7-0.9,3.6-0.9c2.9,0,3.8,1.3,3.9,3.1
		h-4.4c-0.3-0.1-0.6-0.2-1-0.2c-0.3,0-0.6,0.1-1,0.2H324.4z M318.3,146.6c-0.4-0.2-0.8-0.3-1.4-0.3v-2.8c3.1,0,5,1.2,5.7,3.1H318.3z
		 M311.3,146.6c0.7-1.9,2.5-3.1,5.7-3.1v2.8c-0.6,0-1,0.1-1.4,0.3H311.3z M305.5,146.6v-2.2l3.7-1.2v3.3H305.5z M290.3,146.6
		c-0.4-0.2-0.9-0.3-1.5-0.3c-0.1,0-0.2,0-0.3,0v-2.7c1.1,0.1,2.1,0.5,2.7,0.9c0.6,0.3,1.7,0.9,3.1,1v1.1H290.3z M283,146.6
		c0.7-1.9,2.4-3.1,5-3.1c0.2,0,0.3,0,0.5,0.1v2.7c-0.5,0-0.9,0.2-1.2,0.3L283,146.6z M240.5,146.6c0-2,2.2-3.2,5.3-3.2
		c1.7,0,3.2,0.3,4.3,0.5v2.4c-1.4-0.3-2.8-0.5-3.8-0.5c-0.9,0-1.6,0.2-1.6,0.8c0,0,0,0,0,0L240.5,146.6z M232.2,146.6v-1.1
		c0.9,0.2,2.4,0.2,3.7-0.5c1-0.4,2.4-1.2,3.7-1.5v3.1H232.2z M226.4,146.6v-2.2l3.7-1.2v3.3H226.4z M400.2,142.1h3.6v4.5h-3.6V142.1
		z M364.1,142.1v2.3h2.4c0.2,0,0.3,0,0.4,0v2.2h5.1c-0.4-0.3-0.9-0.6-1.5-0.9l-0.4-0.1l0.3-0.2c1-0.7,1.5-1.8,1.5-3
		c0-0.1,0-0.2,0-0.3h-3.8c0.1,0.2,0.2,0.5,0.2,0.8c0,0.8-0.5,1.4-1.5,1.5v2.2h-6.3v-4.5H364.1z M350.9,142.1h3.7v4.5h-3.7V142.1z
		 M299.5,142.1v1.6h3.8v2.8h-3.8v0.1h-3.7v-4.5H299.5z M281.4,142.1v4.5H278l0-4.5H281.4z M272.2,142.1l2.2,2.2l2.3,2.3h-5l-1-1
		c-0.6-0.6-1.1-1.2-1.1-1.2l-0.2,0.1v2.2H266v-4.5H272.2z M256,142.1v1.6h3.8v2.8H256v0.1h-3.7v-4.5H256z M216.1,142.1
		c-0.1,0.1-0.1,0.2-0.1,0.3v2.2h7.9v2h-11.6v-4.2c0-0.1,0-0.2,0-0.3L216.1,142.1z"/>
	<path fill-rule="evenodd" clip-rule="evenodd" fill="#00B5B9" d="M226.4,138.5h3.7v2.8h-3.7V138.5z M305.6,138.5h3.7v2.8h-3.7
		V138.5z M400.2,142.1v-3.2l3.6-1.1v4.3H400.2z M368.1,142.1c-0.2-0.4-0.7-0.6-1.2-0.7v-2.9c3.3,0,4.9,1.6,5,3.6H368.1z
		 M360.6,142.1v-3.6h6.1c0.1,0,0.1,0,0.2,0v2.9c-0.1-0.1-0.2-0.1-0.4-0.1h-2.4v0.7H360.6z M350.9,142.1v-3.4l3.7-1.1v4.5H350.9z
		 M295.9,142.1v-1l3.7-1.1v2.1H295.9z M278,142.1l0-3.6h3.4v3.6H278z M266,142.1v-3.6h1.1c1,0,1.8,0.4,2.4,1l2.6,2.6H266z
		 M252.4,142.1v-1l3.7-1.1v2.1H252.4z M212.3,142.1c0.2-2,1.8-3.6,5.2-3.6h6.9v2.9h-6.7c-0.7,0-1.3,0.3-1.6,0.7L212.3,142.1z
		 M412.5,106.2c-2.2,8.4-10.5,14.7-25.3,14.7H381v-13.3h5.4c2.5,0,4.6-0.5,6.2-1.5L412.5,106.2z M366.9,106.2V121h-11.6v-14.7H366.9
		V121H381v-13.3h-9.6v-1.4H366.9z M342.9,106.2V121h-1.2c-4.4,0-8.3-1.8-11.2-4.6l-10.1-10.1H342.9V121h4v-14.7H342.9z M288.6,106.2
		V121h-12.2v-14.7H288.6V121h3.4v-14.7H288.6z M212.3,106.2h16.8V121h-16.8V106.2z"/>
	<path fill-rule="evenodd" clip-rule="evenodd" fill="#00B5B9" d="M392.6,106.2c2.5-1.5,3.9-4,3.9-7.1c0-4.9-3.7-8.4-10.1-8.4H381
		V78h1.3c5.2,0,8.3-2.7,8.3-7c0-4.4-3.1-7-8.3-7H381V50.7h2.1c16.5,0,24.1,8.3,24.1,18.1c0,5.3-2.4,10.2-7,13.5l-1.2,1l1.5,0.5
		c8.6,3.2,12.7,9.9,12.7,17.4c0,1.7-0.2,3.3-0.6,4.9H392.6 M355.3,106.2V50.7h11.6v55.5h4.5V90.7h9.6V78h-9.6V64h9.6V50.7h-14.1
		v55.5H355.3z M320.4,106.2l-3.5-3.5V79.6l8.6,8.7c2.8,2.8,5.1,5.8,5.1,5.8l0.6-0.2l0.2-43.2h11.6v55.5h4V50.7h-4v55.5H320.4z
		 M276.4,106.2V50.7h5.2c2.5,0,4.8,0.6,6.9,1.6v53.9h3.4V77.8l0.8-0.2c0,0,2.3,3,5.1,5.8l11,11l8.2,8.3V79.6l-2.4-2.3l-21.8-21.9
		c-1.2-1.2-2.6-2.3-4.2-3v53.9H276.4z M212.3,106.2V68.8c0-9.8,7.6-18.1,24.1-18.1H268l0,13.2h-30.8c-4.4,0-7.2,1.8-8,4.9v10h36.4
		v14.6h-36.4v12.8H212.3z"/>
	<path fill-rule="evenodd" clip-rule="evenodd" fill="#FFFFFF" d="M410.5,171.3h0.5V170h-0.5V171.3z M410,170
		c-0.4,0.6-1,1.1-1.9,1.1h0v0.4c1.1,0,1.9-0.5,2.4-1.5H410z M405.5,170c0.4,0.9,1.2,1.5,2.4,1.5h0.1v-0.4c-0.9,0-1.5-0.4-1.9-1.1
		H405.5z M403.7,170c-0.4,1-1.4,1.5-2.6,1.5v-0.4c0.9,0,1.6-0.4,2-1.1H403.7z M399.1,170c0.4,0.6,1.1,1.1,2,1.1v0.4
		c-1.2,0-2.1-0.6-2.5-1.5H399.1z M395.4,170c0,1.3,1,1.4,1.9,1.3v-0.4c-0.9,0-1.4,0-1.4-0.9L395.4,170z M392.6,171.3h0.5V170h-0.5
		V171.3z M390.3,171.3h0.5V170h-0.5V171.3z M386.1,171.3h0.5V170h-0.5V171.3z M382,171.3h0.5V170H382V171.3z M379.7,171.3h0.5V170
		h-0.5V171.3z M372.9,170v1.3h5.8v-0.5h-5.2V170H372.9z M366.6,170l1,1.3h0.7l-1-1.3H366.6z M362.8,171.3h0.5V170h-0.5V171.3z
		 M360.6,171.3h0.5V170h-0.5V171.3z M355.8,171.3h0.5V170h-0.5V171.3z M354,170L354,170c0,0.5,0,0.9,0.5,0.9c0.1,0,0.2,0,0.3,0v0.4
		c-0.1,0-0.3,0-0.4,0c-0.8,0-0.9-0.4-0.9-1v-0.3c-0.3,0.7-1,1.3-2.1,1.5v-0.4c0.9-0.1,1.5-0.6,1.7-1.1H354z M349.3,170
		c0.2,0.6,0.7,1.1,1.7,1.1c0.2,0,0.3,0,0.4,0v0.4c-0.1,0-0.2,0-0.4,0c-1.1,0-2-0.4-2.2-1.5L349.3,170z M347.4,170
		c-0.5,0.9-1.5,1.3-2.9,1.3h-0.4v-0.5h0.4c1.1,0,1.8-0.3,2.3-0.9H347.4z M341.4,170v0.9h2.7v0.5h-3.3V170H341.4z M334.6,170h0.5v1.3
		h-0.5V170z M334.5,170c-0.5,1-1.3,1.5-2.4,1.5v-0.4h0c0.9,0,1.5-0.4,1.9-1.1H334.5z M330.2,170c0.4,0.6,1,1.1,1.9,1.1v0.4h-0.1
		c-1.2,0-2-0.6-2.5-1.5H330.2z M327.3,171.3h0.5V170h-0.5V171.3z M322.5,171.3h0.5V170h-0.5V171.3z M320.8,170L320.8,170
		c0,0.5,0,0.9,0.4,0.9c0,0,0.2,0,0.3,0v0.4c-0.1,0-0.3,0-0.4,0c-0.7,0-0.9-0.4-0.9-1v-0.3c-0.3,0.7-1,1.3-2.1,1.5v-0.4
		c0.9-0.1,1.4-0.6,1.7-1.1H320.8z M316.1,170c0.2,0.6,0.7,1.1,1.7,1.1c0.1,0,0.2,0,0.3,0v0.4c-0.1,0-0.2,0-0.4,0
		c-1.1,0-2-0.4-2.2-1.5L316.1,170z M314.2,170c0,0.6,0,1,0.3,1.3h-0.7c-0.2-0.3-0.2-0.8-0.2-1.3H314.2z M307.6,170h0.6v1.3h-0.6V170
		z M304.4,170c0.1,1.3,1,1.4,1.9,1.3v-0.4c-0.9,0-1.4,0-1.4-0.9L304.4,170z M297.4,170c0.4,1,1.3,1.5,2.5,1.5c1,0,2.3-0.3,2.6-1.5
		H302c-0.2,0.9-1.3,1.1-2.1,1.1c-0.9,0-1.6-0.4-2-1.1H297.4z M293.6,171.3h0.5V170h-0.5V171.3z M291.4,171.3h0.5V170h-0.5V171.3z
		 M284.4,171.3h0.6V170h-0.6V171.3z M277.6,171.3h0.5V170h-0.5V171.3z M275.3,170c-0.5,0.9-1.4,1.5-2.6,1.5v-0.4
		c0.9,0,1.5-0.4,2-1.1H275.3z M270.7,170c0.4,0.6,1.1,1.1,2,1.1v0.4c-1.2,0-2.1-0.6-2.6-1.5H270.7z M263.9,171.3h0.5V170h-0.5V171.3
		z M259.2,171.3h0.5V170h-0.5V171.3z M257.3,170c-0.5,0.9-1.4,1.5-2.6,1.5v-0.4c0.9,0,1.6-0.4,2-1.1H257.3z M252.7,170
		c0.4,0.6,1.1,1.1,2,1.1v0.4c-1.2,0-2.1-0.6-2.6-1.5H252.7z M249.7,171.3h0.5V170h-0.5V171.3z M243.1,170c0.4,1,1.3,1.5,2.5,1.5
		c1,0,2.4-0.3,2.6-1.5h-0.5c-0.2,0.9-1.3,1.1-2.1,1.1c-0.9,0-1.6-0.4-2-1.1H243.1z M240.8,171.3h0.5V170h-0.5V171.3z M236.1,170
		l0.5,1.3h0.6l0.5-1.3h-0.5l-0.3,0.8l-0.3-0.8H236.1z M232.4,171.3h0.5V170h-0.5V171.3z M230.5,170v1.3H230L230,170H230.5z
		 M229.9,170c-0.5,1-1.3,1.5-2.4,1.5v-0.4c0.9,0,1.5-0.4,1.9-1.1H229.9z M225.6,170c0.4,0.6,1,1.1,2,1.1v0.4h-0.1
		c-1.2,0-2-0.6-2.4-1.5H225.6z M219.7,170l0.5,1.3h-0.6l-0.5-1.3H219.7z M213.4,170l-0.5,1.3h-0.6l0.5-1.3H213.4z"/>
	<path fill-rule="evenodd" clip-rule="evenodd" fill="#FFFFFF" d="M403.1,170c0.2-0.3,0.3-0.5,0.3-0.9h0.5c0,0.3-0.1,0.6-0.3,0.9
		H403.1 M297.9,170c-0.1-0.3-0.2-0.5-0.2-0.9h-0.5c0,0.3,0.1,0.6,0.2,0.9L297.9,170z M243.6,170c-0.1-0.3-0.2-0.5-0.2-0.9h-0.5
		c0,0.3,0.1,0.6,0.2,0.9L243.6,170z M410.5,167.8c0,0.1,0,0.2,0,0.3c0,0.7-0.2,1.4-0.5,2h0.5c0,0,0,0,0-0.1v0.1h0.5v-2.2H410.5z
		 M405.1,167.8c0,0.1,0,0.2,0,0.3c0,0.7,0.1,1.4,0.4,2h0.6c-0.3-0.5-0.5-1.2-0.5-2c0-0.1,0-0.2,0-0.3H405.1z M401.1,167.8v0.3h-2.4
		c0,0.7,0.1,1.4,0.5,1.9h-0.6c-0.3-0.5-0.4-1.2-0.4-1.8c0-0.1,0-0.3,0-0.4H401.1v0.3h2.9c0-0.1,0-0.2,0-0.4L401.1,167.8z
		 M395.4,167.8v2c0,0.1,0,0.2,0,0.2h0.5c0-0.1,0-0.1,0-0.2v-2H395.4z M392.6,170h0.5v-2.2h-0.5V170z M390.3,170h0.5v-2.2h-0.5V170z
		 M386.1,170h0.5v-2.2h-0.5V170z M382,170h0.5v-2.2H382V170z M379.7,170h0.5v-2.2h-0.5V170z M372.9,170h0.5v-2.2h-0.5V170z
		 M364.9,167.8l1.7,2.2h0.7l-1.7-2.2H364.9z M362.8,167.8v2.2h0.5v-1.1l1.3-1.1h-0.7l-0.6,0.5v-0.5H362.8z M360.6,170h0.5v-2.2h-0.5
		V170z M355.8,167.8v2.2h0.5v-2.2c0,0,0,0,0,0H355.8z M354,167.8v2.2h-0.8c0.3-0.5,0.4-1,0.4-1.2v-1H354z M351.4,167.8v0.3
		c-0.1,0-0.2,0.1-0.3,0.1c-1.2,0.1-1.8,0.5-1.8,1.5c0,0.1,0,0.3,0.1,0.4h-0.5c0-0.1,0-0.3,0-0.4c0-1.2,0.9-1.7,1.8-1.9H351.4v0.3
		c0.7,0,1.5-0.1,1.9-0.3H351.4z M347.5,167.8c0.1,0.3,0.2,0.6,0.2,1c0,0.5-0.1,0.9-0.3,1.2l-0.7,0c0.2-0.3,0.4-0.7,0.4-1.3
		c0-0.4-0.1-0.7-0.3-1H347.5z M340.8,167.8h0.5v2.2h-0.5V167.8z M335.1,167.8v2.2h-0.5v-0.1c0,0,0,0,0,0.1h-0.5
		c0.3-0.5,0.5-1.3,0.5-2c0-0.1,0-0.2,0-0.3H335.1z M329.7,167.8c0,0.1,0,0.2,0,0.3c0,0.7,0.2,1.4,0.5,2h-0.6c-0.3-0.6-0.4-1.2-0.4-2
		c0-0.1,0-0.2,0-0.3H329.7z M327.3,170h0.5v-2.2h-0.5V170z M322.5,167.8v2.2h0.5v-2.2c0,0,0,0,0,0H322.5z M320.8,167.8v2.2h-0.9
		c0.3-0.5,0.4-1,0.4-1.2v-1H320.8z M318.1,167.8v0.3c-0.1,0-0.2,0.1-0.3,0.1c-1.2,0.1-1.8,0.5-1.8,1.5c0,0.1,0,0.3,0,0.4h-0.5
		c0-0.1,0-0.3,0-0.4c0-1.2,0.9-1.7,1.8-1.9H318.1v0.3c0.7,0,1.5-0.1,1.9-0.3H318.1z M313.8,167.8c0.2,0.3,0.3,0.7,0.3,1.1
		c0,0.4,0,0.8,0.1,1.1h-0.6c0-0.4,0-0.8,0-1.3c-0.1-0.4-0.2-0.7-0.4-1H313.8z M307.6,167.8h0.6v2.2h-0.6V167.8z M304.4,167.8v2
		c0,0.1,0,0.2,0,0.2h0.5c0-0.1,0-0.1,0-0.2v-2H304.4z M298.3,167.8c0.4,0.2,0.9,0.3,1.4,0.4c1.1,0.2,2.3,0.4,2.3,1.5
		c0,0.1,0,0.2,0,0.3l0.5,0c0-0.1,0-0.2,0-0.3c0-1.4-1-1.6-2.2-1.9H298.3z M293.6,170h0.5v-2.2h-0.5V170z M291.4,170h0.5v-2.2h-0.5
		V170z M284.4,170h0.6v-2.2h-0.6V170z M277.6,170h0.5v-2.2h-0.5V170z M275.7,167.8c0,0.1,0,0.2,0,0.3c0,0.7-0.2,1.4-0.5,2h-0.6
		c0.4-0.5,0.6-1.2,0.6-2c0-0.1,0-0.2,0-0.3H275.7z M270.1,167.8c0,0.1,0,0.2,0,0.3c0,0.7,0.2,1.4,0.6,2h-0.6c-0.3-0.6-0.5-1.2-0.5-2
		c0-0.1,0-0.2,0-0.3H270.1z M263.9,170h0.5v-2.2h-0.5V170z M259.2,167.8v2.2h0.5v-2.2c0,0,0,0,0,0H259.2z M257.8,167.8
		c0,0.1,0,0.2,0,0.3c0,0.7-0.2,1.4-0.5,2h-0.6c0.4-0.5,0.6-1.2,0.6-2c0-0.1,0-0.2,0-0.3H257.8z M252.2,167.8c0,0.1,0,0.2,0,0.3
		c0,0.7,0.2,1.4,0.5,2h-0.6c-0.3-0.6-0.5-1.2-0.5-2c0-0.1,0-0.2,0-0.3H252.2z M249.7,170h0.5v-2.2h-0.5V170z M244,167.8
		c0.4,0.2,0.9,0.3,1.4,0.4c1.2,0.2,2.3,0.4,2.3,1.5c0,0.1,0,0.2,0,0.3l0.5,0c0-0.1,0-0.2,0-0.3c0-1.4-1-1.6-2.2-1.9H244z M240.8,170
		h0.5v-2.2h-0.5V170z M238.1,167.8l-0.8,2.2h0.5l0.9-2.2H238.1z M235.2,167.8l0.9,2.2h0.5l-0.9-2.2H235.2z M232.4,170h0.5v-2.2h-0.5
		V170z M230.5,167.8v2.2H230v-0.1c0,0,0,0,0,0.1h-0.4c0.4-0.5,0.5-1.3,0.5-2c0-0.1,0-0.2,0-0.3H230.5z M225.1,167.8
		c0,0.1,0,0.2,0,0.3c0,0.7,0.2,1.4,0.5,2H225c-0.3-0.6-0.4-1.2-0.4-2c0-0.1,0-0.2,0-0.3H225.1z M218.8,167.8l0.9,2.2h-0.6l-0.6-1.6
		h-2.2v-0.5h2l-0.1-0.1H218.8z M214.3,167.8l-0.1,0.1h2v0.5h-2.2l-0.6,1.6h-0.6l0.9-2.2H214.3z"/>
	<path fill-rule="evenodd" clip-rule="evenodd" fill="#FFFFFF" d="M409.5,165.5c0.6,0.5,0.9,1.4,1,2.2h0.5v-2.2h-0.5v0.7
		c-0.1-0.3-0.2-0.5-0.4-0.7L409.5,165.5 M405.9,165.5c-0.5,0.6-0.7,1.4-0.7,2.2h0.5c0.1-0.9,0.3-1.7,0.9-2.2L405.9,165.5z
		 M399.7,165.5c-0.6,0.5-0.9,1.4-1,2.2h2.4v0.1h2.9c0-0.9-0.2-1.7-0.7-2.2h-0.7c0.6,0.5,0.9,1.3,0.9,2.2h-2.4v0.1h-2.9
		c0-0.9,0.3-1.7,0.8-2.2H399.7z M395.4,167.8h0.5v-2.2h-0.5V167.8z M392.6,167.8h0.5v-2.2h-0.5V167.8z M389.9,165.5
		c0.2,0.3,0.4,0.7,0.4,1.3v0.9h0.5v-0.9c0-0.5-0.1-1-0.3-1.3L389.9,165.5z M385.8,165.5c0.2,0.3,0.4,0.7,0.4,1.3v0.9h0.5v-0.4
		c0-0.8,0.3-1.5,0.7-1.9h-0.5c-0.1,0.1-0.2,0.3-0.2,0.4c0-0.1-0.1-0.3-0.2-0.4H385.8z M382,165.5v2.2h0.5v-0.4
		c0-0.9,0.3-1.5,0.7-1.9l-0.5,0c-0.1,0.2-0.2,0.4-0.3,0.5v-0.5H382z M379.7,167.8h0.5v-2.2h-0.5V167.8z M372.9,167.8h0.5v-2.2h-0.5
		V167.8z M366.5,165.5l-2.6,2.2h0.7l0.2-0.2l0.1,0.2h0.7l-0.4-0.6l2-1.7H366.5z M362.8,167.8h0.5v-2.2h-0.5V167.8z M360.1,165.5
		c0.5,0.5,0.5,1.2,0.5,1.6v0.6h0.5v-0.5c0-0.4,0-1.1-0.4-1.7L360.1,165.5z M355.8,165.5v2.2h0.5c0-0.9,0.3-1.7,0.9-2.2l-0.5,0
		c-0.1,0.2-0.3,0.4-0.3,0.7l0-0.7H355.8z M353.8,165.5c0.1,0.2,0.2,0.5,0.2,0.8v1.5h-0.5v-0.2c-0.1,0.1-0.1,0.1-0.2,0.2h-1.9v-0.1
		h-0.2c-0.2,0-0.4,0-0.6,0.1h0.8v-0.1c2-0.2,2.2-0.3,2.2-1.4c0-0.1-0.1-0.5-0.4-0.8H353.8z M350.2,165.5c-0.3,0.3-0.5,0.7-0.5,1.3
		h-0.5c0-0.5,0.1-0.9,0.3-1.2L350.2,165.5z M347.2,165.5c-0.3,0.5-0.8,0.9-1.5,1c0.2,0,1.4,0.3,1.9,1.3h-0.6
		c-0.5-0.7-1.5-0.9-2.4-0.9h-0.4v-0.5h0.4c1,0,1.7-0.3,2-0.8L347.2,165.5z M341.4,165.5v0.8h2.7v0.5h-2.7v0.9h-0.5v-2.2H341.4z
		 M334.2,165.5c0.2,0.2,0.3,0.4,0.4,0.7v-0.7h0.5v2.2h-0.5c-0.1-0.9-0.4-1.7-1-2.2H334.2z M330.6,165.5c-0.6,0.5-0.9,1.3-0.9,2.2
		h-0.5c0-0.9,0.3-1.7,0.7-2.2L330.6,165.5z M326.8,165.5c0.4,0.5,0.5,1.2,0.5,1.6v0.6h0.5v-0.5c0-0.4,0-1.1-0.4-1.7L326.8,165.5z
		 M322.5,165.5v2.2h0.5c0-0.9,0.3-1.7,0.9-2.2l-0.5,0c-0.1,0.2-0.3,0.4-0.3,0.7l0-0.7H322.5z M320.6,165.5c0.1,0.2,0.2,0.5,0.2,0.8
		v1.5h-0.5v-0.2c-0.1,0.1-0.1,0.1-0.2,0.2h-1.9v-0.1h-0.2c-0.2,0-0.4,0-0.6,0.1h0.8v-0.1c2-0.2,2.2-0.3,2.2-1.4
		c0-0.1-0.1-0.5-0.4-0.8H320.6z M316.9,165.5c-0.3,0.3-0.5,0.7-0.5,1.3h-0.5c0-0.5,0.1-0.9,0.4-1.2L316.9,165.5z M314.1,165.5
		c-0.3,0.7-0.9,1.2-1.8,1.4c0.8,0.1,1.2,0.4,1.5,0.8h-0.6c-0.3-0.4-0.8-0.6-1.7-0.6H311v-0.5h0.4c1,0,1.8-0.3,2.1-1.1H314.1z
		 M308.2,165.5v1.1h2.8v0.5h-2.8v0.6h-0.6v-2.2H308.2z M304.4,167.8h0.5v-2.2h-0.5V167.8z M301.4,165.5c0.3,0.3,0.4,0.7,0.4,1.2h0.5
		c0-0.5-0.1-0.9-0.3-1.2H301.4z M297.6,165.5c-0.1,0.2-0.2,0.5-0.2,0.8c0,0.8,0.4,1.2,0.9,1.5l1.9,0c-0.1,0-0.1,0-0.1,0
		c-1.1-0.2-2.2-0.4-2.2-1.5c0-0.3,0.1-0.6,0.3-0.8H297.6z M293.6,165.5v2.2h0.5v0c0.1-1,0.2-1.4,0.7-1.9c0.1-0.1,0.3-0.2,0.4-0.3
		h-0.7c-0.2,0.2-0.3,0.4-0.4,0.7v-0.7H293.6z M291.4,167.8h0.5v-2.2h-0.5V167.8z M284.4,165.5v2.2h0.6v-0.9h4.7v-0.5H285v-0.8H284.4
		z M277.6,167.8h0.5v-2.2h-0.5V167.8z M274.9,165.5c0.5,0.6,0.8,1.4,0.8,2.2h-0.5c-0.1-0.9-0.4-1.7-1-2.2L274.9,165.5z M271.2,165.5
		c-0.6,0.5-1,1.3-1,2.2h-0.5c0.1-0.9,0.3-1.7,0.8-2.2L271.2,165.5z M263.5,165.5c0.4,0.5,0.5,1.2,0.5,1.6v0.6h0.5v-0.5
		c0-0.4,0-1.1-0.3-1.7L263.5,165.5z M259.2,165.5v2.2h0.5c0-0.9,0.3-1.7,0.9-2.2l-0.6,0c-0.1,0.2-0.3,0.4-0.3,0.7v-0.7H259.2z
		 M256.9,165.5c0.5,0.6,0.8,1.4,0.9,2.2h-0.5c-0.1-0.9-0.4-1.7-1-2.2L256.9,165.5z M253.2,165.5c-0.6,0.5-0.9,1.3-1,2.2h-0.5
		c0.1-0.9,0.3-1.7,0.8-2.2L253.2,165.5z M249.7,167.8h0.5v-2.2h-0.5V167.8z M247,165.5c0.3,0.3,0.4,0.7,0.4,1.2h0.5
		c0-0.5-0.1-0.9-0.3-1.2H247z M243.3,165.5c-0.1,0.2-0.2,0.5-0.2,0.8c0,0.8,0.4,1.2,0.9,1.5l1.9,0c0,0-0.1,0-0.1,0
		c-1.1-0.2-2.2-0.4-2.2-1.5c0-0.3,0.1-0.6,0.3-0.8H243.3z M240.8,167.8h0.5v-2.2h-0.5V167.8z M238.9,165.5l-0.8,2.2h0.5l0.9-2.2
		H238.9z M234.3,165.5l0.9,2.2h0.5l-0.9-2.2H234.3z M232.4,167.8h0.5v-2.2h-0.5V167.8z M229.6,165.5c0.2,0.2,0.3,0.4,0.4,0.7v-0.7
		h0.5v2.2H230c-0.1-0.9-0.4-1.7-1-2.2H229.6z M226,165.5c-0.6,0.5-0.9,1.3-0.9,2.2h-0.5c0-0.9,0.3-1.7,0.8-2.2L226,165.5z
		 M217.9,165.5l0.9,2.2h-0.6l-0.9-2.2H217.9z M215.2,165.5l-0.9,2.2h-0.6l0.9-2.2H215.2z"/>
	<path fill-rule="evenodd" clip-rule="evenodd" fill="#FFFFFF" d="M410.1,165.5c-0.5-0.6-1.3-1-2.1-1v0.4c0.6,0,1.1,0.2,1.5,0.5
		H410.1 M406.5,165.5c0.4-0.3,0.9-0.5,1.5-0.5v-0.4c-1,0-1.7,0.4-2.2,1L406.5,165.5z M402.6,165.5c-0.4-0.3-0.9-0.5-1.5-0.5v-0.4
		c1,0,1.7,0.4,2.2,1H402.6z M399,165.5c0.5-0.6,1.2-1,2.1-1v0.4c-0.6,0-1,0.2-1.4,0.5H399z M392.6,165.5h0.5v-0.8h-0.5V165.5z
		 M387.3,165.5c0.4-0.4,0.8-0.5,1.4-0.5c0.2,0,0.8,0.1,1.2,0.5l0.6,0c-0.4-0.7-1-1-1.8-1c-0.9,0-1.5,0.4-1.9,1L387.3,165.5z
		 M383.2,165.5c0.4-0.4,0.9-0.5,1.4-0.5c0.3,0,0.8,0.1,1.2,0.5l0.6,0c-0.3-0.5-0.9-1-1.8-1c-0.8,0-1.5,0.4-1.8,1H383.2z M382,165.5
		h0.5v-0.8H382V165.5z M379.7,165.5h0.5v-0.8h-0.5V165.5z M367.1,165.5l0.9-0.8h-0.7l-0.9,0.8H367.1z M357.2,165.5
		c0.4-0.3,0.9-0.5,1.5-0.5c0.7,0,1.1,0.2,1.4,0.5h0.6c-0.3-0.5-0.9-1-2-1c-0.8,0-1.6,0.3-2,1L357.2,165.5z M356.3,165.5l0-0.8h-0.5
		v0.8H356.3z M353.2,165.5c-0.3-0.3-0.8-0.5-1.5-0.5c-0.1,0-0.2,0-0.3,0v-0.4c0.1,0,0.2,0,0.3,0c0.9,0,1.8,0.2,2.2,1H353.2z
		 M349.5,165.5c0.4-0.6,1-0.9,1.9-1v0.4c-0.5,0.1-0.9,0.2-1.2,0.5L349.5,165.5z M333.6,165.5c-0.4-0.3-0.9-0.5-1.5-0.5v-0.4
		c0.8,0,1.6,0.3,2.1,1L333.6,165.5z M330,165.5c0.5-0.6,1.2-1,2.2-1v0.4c-0.6,0-1.1,0.2-1.5,0.5L330,165.5z M323.9,165.5
		c0.4-0.3,0.9-0.5,1.5-0.5c0.7,0,1.1,0.2,1.4,0.5h0.6c-0.3-0.5-0.9-1-2-1c-0.8,0-1.6,0.3-2,1L323.9,165.5z M323,165.5l0-0.8h-0.5
		v0.8H323z M319.9,165.5c-0.3-0.3-0.7-0.5-1.4-0.5c-0.1,0-0.2,0-0.3,0v-0.4c0.1,0,0.2,0,0.3,0c0.9,0,1.8,0.2,2.2,1H319.9z
		 M316.3,165.5c0.4-0.6,1-0.9,1.9-1v0.4c-0.5,0.1-0.9,0.2-1.2,0.5L316.3,165.5z M298.2,165.5c0.4-0.4,1-0.5,1.6-0.5
		c0.6,0,1.2,0.2,1.5,0.5h0.6c-0.4-0.7-1.2-1-2.1-1c-0.9,0-1.8,0.3-2.2,1H298.2z M295.3,165.5c0.5-0.3,1-0.4,1.4-0.3v-0.5
		c-0.9,0-1.7,0.3-2.1,0.9H295.3z M293.6,165.5h0.5v-0.8h-0.5V165.5z M291.4,165.5h0.5v-0.8h-0.5V165.5z M274.2,165.5
		c-0.4-0.3-0.9-0.5-1.5-0.5v-0.4c0.9,0,1.7,0.4,2.2,1L274.2,165.5z M270.5,165.5c0.5-0.6,1.3-1,2.2-1v0.4c-0.6,0-1.1,0.2-1.5,0.5
		L270.5,165.5z M260.6,165.5c0.4-0.3,0.9-0.5,1.5-0.5c0.7,0,1.1,0.2,1.4,0.5h0.6c-0.3-0.5-0.9-1-2-1c-0.8,0-1.6,0.3-2,1L260.6,165.5
		z M259.2,165.5h0.5v-0.8h-0.5V165.5z M256.3,165.5c-0.4-0.3-0.9-0.5-1.5-0.5v-0.4c0.9,0,1.7,0.4,2.2,1L256.3,165.5z M252.6,165.5
		c0.5-0.6,1.2-1,2.2-1v0.4c-0.6,0-1.1,0.2-1.5,0.5L252.6,165.5z M249.7,165.5h0.5v-0.8h-0.5V165.5z M243.9,165.5
		c0.4-0.4,1-0.5,1.6-0.5c0.6,0,1.2,0.2,1.5,0.5h0.6c-0.4-0.7-1.2-1-2.1-1c-0.9,0-1.8,0.3-2.2,1H243.9z M240.8,165.5h0.5v-0.8h-0.5
		V165.5z M239.5,165.5l0.3-0.8h-0.5l-0.3,0.8H239.5z M234.9,165.5l-0.3-0.8H234l0.3,0.8H234.9z M232.4,165.5h0.5v-0.8h-0.5V165.5z
		 M229,165.5c-0.4-0.3-0.9-0.5-1.5-0.5v-0.4c0.8,0,1.6,0.3,2.1,1L229,165.5z M225.4,165.5c0.5-0.6,1.2-1,2.2-1v0.4
		c-0.7,0-1.2,0.2-1.6,0.5L225.4,165.5z M410.5,165.5h0.5V164h-0.5V165.5z M395.4,164v0.7h-1.2v0.4h1.2v0.4h0.5v-0.4h1.5v-0.4h-1.5
		V164H395.4z M372.9,165.5h0.5V164h-0.5V165.5z M362.8,165.5h0.5V164h-0.5V165.5z M347.4,164c0,0.2,0,0.3,0,0.5c0,0.3-0.1,0.7-0.2,1
		h-0.6c0.2-0.3,0.3-0.7,0.3-1.1c0-0.2,0-0.3,0-0.4L347.4,164z M340.8,164h0.5v1.5h-0.5V164z M334.6,164h0.5v1.5h-0.5V164z
		 M314.3,164c0,0.2,0,0.3,0,0.5c0,0.4-0.1,0.7-0.2,1h-0.5c0.1-0.3,0.2-0.6,0.2-1c0-0.2,0-0.4-0.1-0.5L314.3,164z M307.6,164h0.6v1.5
		h-0.6V164z M304.4,164v0.7h-1.2v0.4h1.2v0.4h0.5v-0.4h1.5v-0.4h-1.5V164H304.4z M284.4,165.5h0.6V164h-0.6V165.5z M277.6,164v0.7
		h-1.2v0.4h1.2v0.4h0.5v-0.4h1.3v-0.4h-1.3V164H277.6z M230,164h0.5v1.5H230V164z M217.4,164l0.6,1.5h-0.6l-0.6-1.5H217.4z
		 M215.8,164l-0.6,1.5h-0.6l0.6-1.5H215.8z"/>
	<path fill-rule="evenodd" clip-rule="evenodd" fill="#FFFFFF" d="M232.4,163.5h0.5v-1.3h-0.5V163.5z M240.8,163.5h0.5v-1.3h-0.5
		V163.5z M249.7,163.5h0.5v-1.3h-0.5V163.5z M291.4,163.5h0.5v-1.3h-0.5V163.5z M379.7,163.5h0.5v-1.3h-0.5V163.5z M392.6,163.5h0.5
		v-1.3h-0.5V163.5z M410.5,164h0.5v-1.9h-0.5V164z M395.4,164h0.5v-1.4h-0.5V164z M372.9,164h0.5v-1.9h-0.5V164z M362.8,164h0.5
		v-1.9h-0.5V164z M346.8,164c-0.2-1-1.2-1.4-2.3-1.4h-0.4v-0.5h0.4c1.9,0,2.7,0.9,2.9,1.9L346.8,164z M340.8,164v-1.9h3.3v0.5h-2.7
		v1.4H340.8z M334.6,162.1h0.5v1.9h-0.5V162.1z M313.7,164c-0.2-1-1.2-1.4-2.2-1.4H311v-0.5h0.4c1.4,0,2.6,0.5,2.8,1.9H313.7z
		 M307.6,164v-1.9h3.4v0.5h-2.8v1.4H307.6z M304.4,164h0.5v-1.4h-0.5V164z M285,164v-1.4h5.2v-0.5h-5.8v1.9H285z M278.1,164v-0.6
		c0-0.8,0.4-1,1-1c0.2,0,0.4,0.1,0.5,0.1v-0.4c-0.2-0.1-0.4-0.1-0.5-0.1c-0.8,0-1.5,0.4-1.5,1.3v0.7H278.1z M230,162.1h0.5v1.9H230
		V162.1z M216.8,164l-0.5-1.3v0v-0.6h0.3l0.7,1.9H216.8z M215.2,164l0.8-1.9h0.3v0.6l-0.5,1.3H215.2z"/>
	<rect x="467.9" y="76.2" fill-rule="evenodd" clip-rule="evenodd" fill="#00B5B9" width="255" height="20"/>
	<path fill-rule="evenodd" clip-rule="evenodd" fill="#00B5B9" d="M724.6,96.2L724.6,96.2c-4.4,0-8-3.6-8-8v-3.3c0-4.4,3.6-8,8-8
		l0,0c4.4,0,8,3.6,8,8v3.3C732.6,92.6,729,96.2,724.6,96.2z"/>
</g>
</svg>
