<?xml version="1.0" encoding="utf-8"?>
<!-- Generator: Adobe Illustrator 18.1.1, SVG Export Plug-In . SVG Version: 6.00 Build 0)  -->
<svg version="1.1" id="Capa_1" xmlns="http://www.w3.org/2000/svg" xmlns:xlink="http://www.w3.org/1999/xlink" x="0px" y="0px"
	 viewBox="0 0 612 792" enable-background="new 0 0 612 792" xml:space="preserve">
<g>
	<g>
		<path fill="#FDFFFF" d="M275,451.4c84.7,0,153.4-27.4,153.4-61.4v-61.3c0-33.9-68.7-61.4-153.4-61.4
			c-84.7,0-153.4,27.4-153.4,61.4v61.4C121.6,424,190.2,451.4,275,451.4z M275,282.7c84.3,0,138.1,27.3,138.1,46s-53.8,46-138.1,46
			c-84.3,0-138.1-27.3-138.1-46C137,310,190.7,282.7,275,282.7z"/>
		<path fill="#FDFFFF" d="M275,543.5c18.3,0,35.8-1.4,52.1-3.7c13.1-43.5,53.6-75.3,101.3-75.3v-43.7c0,33.9-68.7,61.4-153.4,61.4
			c-84.7,0-153.4-27.4-153.4-61.4v61.3C121.6,516,190.2,543.5,275,543.5z"/>
		<path fill="#FDFFFF" d="M275,574.2c-84.7,0-153.4-27.4-153.4-61.4v61.4c0,33.9,68.6,61.4,153.4,61.4c23.5,0,45.7-2.2,65.7-6
			c-11.3-16.7-17.9-36.8-18.1-58.4C307.6,573,291.6,574.2,275,574.2z"/>
		<path fill="#FDFFFF" d="M428.4,658.6c48.8,0,88.3-39.5,88.3-88.3c0-48.8-39.5-88.3-88.3-88.3s-88.2,39.6-88.2,88.4
			C340.2,619.1,379.7,658.6,428.4,658.6z M415.2,570.4v-44.1h26.5v44.1h22l-35.3,44.1L393,570.4H415.2z"/>
	</g>
</g>
</svg>
