<?xml version="1.0" encoding="utf-8"?>
<!-- Generator: Adobe Illustrator 18.1.1, SVG Export Plug-In . SVG Version: 6.00 Build 0)  -->
<svg version="1.1" id="Capa_1" xmlns="http://www.w3.org/2000/svg" xmlns:xlink="http://www.w3.org/1999/xlink" x="0px" y="0px"
	 viewBox="0 0 615.7 241" enable-background="new 0 0 615.7 241" xml:space="preserve">
<polygon fill="#FFFFFF" stroke="#009999" stroke-miterlimit="10" points="534.3,66.6 569.3,66.6 569.3,169.8 599,169.8 599,195.9 
	534.3,195.9 "/>
<circle fill="none" stroke="#FFFFFF" stroke-miterlimit="10" cx="590" cy="76.3" r="11.7"/>
<path fill="#FFFFFF" d="M585.4,82.4V70.1h5.4c1.1,0,1.9,0.1,2.5,0.3c0.6,0.2,1,0.6,1.4,1.2c0.3,0.6,0.5,1.2,0.5,1.9
	c0,0.9-0.3,1.6-0.8,2.2c-0.6,0.6-1.4,1-2.6,1.1c0.4,0.2,0.8,0.4,1,0.6c0.5,0.4,0.9,1,1.3,1.6l2.1,3.3h-2l-1.6-2.6
	c-0.5-0.7-0.9-1.3-1.2-1.7c-0.3-0.4-0.6-0.7-0.8-0.8c-0.2-0.2-0.5-0.3-0.7-0.3c-0.2,0-0.5-0.1-0.9-0.1H587v5.5H585.4z M587,75.5h3.5
	c0.7,0,1.3-0.1,1.7-0.2c0.4-0.2,0.7-0.4,1-0.7c0.2-0.3,0.3-0.7,0.3-1.1c0-0.6-0.2-1.1-0.6-1.4c-0.4-0.4-1.1-0.6-2-0.6H587V75.5z"/>
<g>
	<path fill="#FFFFFF" stroke="#009999" stroke-miterlimit="10" d="M227.7,143.5c2.2-6.5,3.5-13.9,3.5-21.8
		c0-15.6-4.5-27.8-12.2-38.2c-4.8-6.6-11.3-16.1-17.6-16.1c-6.3,0-13,9.7-17.8,16.1c-7.8,10.5-12,22.5-12,38.2
		c0,7.5,1.2,14.6,3.2,20.9l-22.6,19.6v32l31.1-20h2.6v4h29.8v-4h2.6l31.1,20v-32L227.7,143.5z"/>
</g>
<g>
	<path fill="#FFFFFF" stroke="#009999" stroke-miterlimit="10" d="M253.4,67.1H315c0,0,21.3,2.4,32,20.8l-4.6-21.3h37.3l17.5,66.7
		l18.3-66.3h105.1v24.1h-31.2v26.5h29.7v27h-28.9v24.6h30.5v26h-67.8v-124l-35,124h-41.9L353.9,113c0,0-3.8,22.7-24.4,33.1
		l26.6,49.2h-36.5l-25.9-43.1v43.1l-41.1-0.2 M148,195.7l-36.2-0.3v-47.3l-18.3,47.3h-19l-16.7-46.9v46.4l-38.1,0.5V66.6h47.2
		l16.7,54l19-54h45.7v116C148.3,182.6,148,195.8,148,195.7z M293,128.2c25.1-0.9,22.8-20.4,22.8-20.4c-3.8-18.9-22.8-18-22.8-18
		V128.2z"/>
	<line fill="#FFFFFF" stroke="#009999" stroke-miterlimit="10" x1="253.4" y1="67.1" x2="253.4" y2="195.3"/>
</g>
</svg>
