<?xml version="1.0" encoding="utf-8"?>
<!-- Generator: Adobe Illustrator 18.1.1, SVG Export Plug-In . SVG Version: 6.00 Build 0)  -->
<svg version="1.1" id="Capa_1" xmlns="http://www.w3.org/2000/svg" xmlns:xlink="http://www.w3.org/1999/xlink" x="0px" y="0px"
	 viewBox="-235 -29 496 496" enable-background="new -235 -29 496 496" xml:space="preserve">
<path opacity="0.56" fill="#555555" d="M131.3,177.7c-4.7,0-9.3,0.3-13.9,0.8c-5.5-22.9-17.7-43.8-35.3-60.1
	c-22.4-20.7-51.5-32.1-82-32.1c-56.1,0-104,38.3-117.1,91.4c-65.3,1.5-118,55-118,120.7c0,66.6,54.1,120.7,120.7,120.7h34.7
	c6.6,7.8,14.3,14.8,22.9,20.8c20.2,14.1,43.8,21.5,68.4,21.5c26.1,0,50.9-8.3,71.8-23.9c7.2-5.4,13.7-11.6,19.4-18.4h28.4
	c66.6,0,120.7-54.1,120.7-120.7C252,231.9,197.9,177.7,131.3,177.7z M104.5,370.3c-6,19.4-18.3,36.9-34.6,49.1
	c-16.9,12.7-37,19.4-58.2,19.4c-41.2,0-76.5-25.8-90.6-62l-20.1,3.5c-0.6,0.1-1.1,0.1-1.7,0.1c-3.3,0-6.5-1.7-8.3-4.6
	c-2.1-3.3-2-7.6,0.3-10.9l29.4-41.5c1.5-2.1,3.8-3.5,6.3-4c2.5-0.4,5.2,0.2,7.3,1.7l41.5,29.4c3.2,2.3,4.8,6.3,3.9,10.1
	c-0.9,3.9-4,6.8-7.9,7.5l-18,3.1c10.8,21,32.6,35.4,57.8,35.4c28.7,0,53.6-18.4,62-45.8c2.6-8.5,11.6-13.3,20.1-10.6
	C102.4,352.8,107.1,361.8,104.5,370.3z M125.6,296.4l-29.4,41.5c-1.5,2.1-3.8,3.5-6.3,4c-0.5,0.1-1.1,0.1-1.7,0.1
	c-2,0-4-0.6-5.6-1.8l-41.5-29.4c-3.2-2.3-4.8-6.3-3.9-10.1c0.9-3.8,4-6.8,7.9-7.5l18-3.1c-10.8-21-32.6-35.4-57.8-35.4
	c-28.7,0-53.6,18.4-62,45.8c-2.6,8.5-11.6,13.3-20.1,10.6c-8.5-2.6-13.3-11.6-10.6-20.1c6-19.4,18.3-36.9,34.6-49.1
	c16.9-12.7,37-19.4,58.2-19.4c41.2,0,76.5,25.8,90.6,62l20.1-3.5c3.9-0.7,7.8,1.1,9.9,4.4C128,288.9,127.9,293.2,125.6,296.4z"/>
</svg>
