<?xml version="1.0" encoding="utf-8"?>
<!-- Generator: Adobe Illustrator 18.1.1, SVG Export Plug-In . SVG Version: 6.00 Build 0)  -->
<svg version="1.1" id="Capa_1" xmlns="http://www.w3.org/2000/svg" xmlns:xlink="http://www.w3.org/1999/xlink" x="0px" y="0px"
	 viewBox="-87 -1231.7 2788.9 2987.4" enable-background="new -87 -1231.7 2788.9 2987.4" xml:space="preserve">
<g>
	<g id="user">
		<g>
			<path fill="#FFFFFF" stroke="#009899" stroke-width="0.5" stroke-miterlimit="10" d="M1854.9,537.4
				C2080.6,359.6,2226,84.5,2226-225.1c0-536.2-434.7-971-971-971s-971,434.7-971,971c0,309.6,145.5,584.8,371.2,762.6
				C250.6,743.7-34.3,1151.2-65.8,1628.5H111c34.1-447,324.7-821.6,724.6-979c127.1,61.1,269,96.3,419.5,96.3
				c150.5,0,292.3-35.2,419.5-96.3c399.9,157.4,690.5,532,724.6,979h176.8C2544.5,1151.2,2259.6,743.7,1854.9,537.4z M1255.1,569.3
				c-438.8,0-794.4-355.6-794.4-794.4c0-438.8,355.6-794.4,794.4-794.4s794.4,355.6,794.4,794.4
				C2049.5,213.7,1693.8,569.3,1255.1,569.3z"/>
		</g>
	</g>
</g>
</svg>
